<svg width="27" height="27" viewBox="0 0 27 27" fill="none" xmlns="http://www.w3.org/2000/svg">
<g clip-path="url(#clip0_71_40)">
<path d="M13.5 0C9.83644 0 9.37575 0.016875 7.93631 0.081C6.49688 0.1485 5.51644 0.374625 4.6575 0.70875C3.75611 1.0468 2.93986 1.57848 2.26631 2.26631C1.57848 2.93986 1.0468 3.75611 0.70875 4.6575C0.374625 5.51475 0.146813 6.49687 0.081 7.93125C0.016875 9.37406 0 9.83306 0 13.5017C0 17.1669 0.016875 17.6259 0.081 19.0654C0.1485 20.5031 0.374625 21.4836 0.70875 22.3425C1.05469 23.2301 1.51538 23.9827 2.26631 24.7337C3.01556 25.4846 3.76819 25.947 4.65581 26.2912C5.51644 26.6254 6.49519 26.8532 7.93294 26.919C9.37406 26.9831 9.83306 27 13.5 27C17.1669 27 17.6243 26.9831 19.0654 26.919C20.5014 26.8515 21.4853 26.6254 22.3442 26.2912C23.245 25.953 24.0606 25.4213 24.7337 24.7337C25.4846 23.9827 25.9453 23.2301 26.2912 22.3425C26.6237 21.4836 26.8515 20.5031 26.919 19.0654C26.9831 17.6259 27 17.1669 27 13.5C27 9.83306 26.9831 9.37406 26.919 7.93294C26.8515 6.49688 26.6237 5.51475 26.2912 4.6575C25.9532 3.75611 25.4215 2.93986 24.7337 2.26631C24.0601 1.57848 23.2439 1.0468 22.3425 0.70875C21.4819 0.374625 20.4997 0.146813 19.0637 0.081C17.6226 0.016875 17.1653 0 13.4966 0H13.5ZM12.2901 2.43338H13.5017C17.1062 2.43338 17.5331 2.44519 18.9557 2.511C20.2719 2.57006 20.9874 2.79113 21.4633 2.97506C22.0927 3.21975 22.5433 3.51337 23.0158 3.98587C23.4883 4.45837 23.7803 4.90725 24.0249 5.53838C24.2106 6.01256 24.4299 6.72806 24.489 8.04431C24.5548 9.46688 24.5683 9.89381 24.5683 13.4966C24.5683 17.0994 24.5548 17.5281 24.489 18.9506C24.4299 20.2669 24.2089 20.9807 24.0249 21.4566C23.807 22.042 23.4617 22.5716 23.0141 23.0074C22.5416 23.4799 22.0928 23.7718 21.4616 24.0165C20.9891 24.2021 20.2736 24.4215 18.9557 24.4823C17.5331 24.5464 17.1062 24.5616 13.5017 24.5616C9.89719 24.5616 9.46856 24.5464 8.046 24.4823C6.72975 24.4215 6.01594 24.2021 5.54006 24.0165C4.95422 23.7992 4.42395 23.4546 3.98756 23.0074C3.53915 22.5713 3.1933 22.041 2.97506 21.4549C2.79113 20.9807 2.57006 20.2652 2.511 18.9489C2.44688 17.5264 2.43338 17.0994 2.43338 13.4932C2.43338 9.88706 2.44688 9.4635 2.511 8.04094C2.57175 6.72469 2.79113 6.00919 2.97675 5.53331C3.22144 4.90388 3.51506 4.45331 3.98756 3.98081C4.46006 3.50831 4.90894 3.21638 5.54006 2.97169C6.01594 2.78606 6.72975 2.56669 8.046 2.50594C9.29138 2.44856 9.774 2.43169 12.2901 2.43V2.43338ZM20.7073 4.67437C20.4946 4.67437 20.2839 4.71628 20.0874 4.79769C19.8908 4.8791 19.7122 4.99843 19.5618 5.14886C19.4114 5.29929 19.292 5.47788 19.2106 5.67443C19.1292 5.87098 19.0873 6.08163 19.0873 6.29438C19.0873 6.50712 19.1292 6.71777 19.2106 6.91432C19.292 7.11087 19.4114 7.28946 19.5618 7.43989C19.7122 7.59032 19.8908 7.70965 20.0874 7.79106C20.2839 7.87247 20.4946 7.91438 20.7073 7.91438C21.137 7.91438 21.549 7.7437 21.8528 7.43989C22.1566 7.13608 22.3273 6.72403 22.3273 6.29438C22.3273 5.86472 22.1566 5.45267 21.8528 5.14886C21.549 4.84505 21.137 4.67437 20.7073 4.67437ZM13.5017 6.56775C12.5821 6.5534 11.6689 6.72213 10.8152 7.06411C9.96142 7.40609 9.18424 7.91449 8.52888 8.55971C7.87351 9.20493 7.35305 9.97408 6.99779 10.8224C6.64254 11.6707 6.45958 12.5812 6.45958 13.5008C6.45958 14.4205 6.64254 15.331 6.99779 16.1793C7.35305 17.0276 7.87351 17.7968 8.52888 18.442C9.18424 19.0872 9.96142 19.5956 10.8152 19.9376C11.6689 20.2796 12.5821 20.4483 13.5017 20.4339C15.3217 20.4055 17.0576 19.6626 18.3346 18.3655C19.6117 17.0684 20.3275 15.3211 20.3275 13.5008C20.3275 11.6806 19.6117 9.93332 18.3346 8.6362C17.0576 7.33908 15.3217 6.59615 13.5017 6.56775ZM13.5017 8.99944C14.0927 8.99944 14.6779 9.11585 15.224 9.34202C15.77 9.5682 16.2662 9.89971 16.6841 10.3176C17.102 10.7355 17.4335 11.2317 17.6597 11.7777C17.8858 12.3237 18.0023 12.909 18.0023 13.5C18.0023 14.091 17.8858 14.6763 17.6597 15.2223C17.4335 15.7683 17.102 16.2645 16.6841 16.6824C16.2662 17.1003 15.77 17.4318 15.224 17.658C14.6779 17.8842 14.0927 18.0006 13.5017 18.0006C12.3081 18.0006 11.1633 17.5264 10.3193 16.6824C9.47529 15.8384 9.00113 14.6936 9.00113 13.5C9.00113 12.3064 9.47529 11.1616 10.3193 10.3176C11.1633 9.4736 12.3081 8.99944 13.5017 8.99944Z" fill="#6B7158"/>
</g>
<defs>
<clipPath id="clip0_71_40">
<rect width="27" height="27" fill="white"/>
</clipPath>
</defs>
</svg>
